<?xml version="1.0" encoding="utf-8"?>
<!-- Generator: Adobe Illustrator 25.3.1, SVG Export Plug-In . SVG Version: 6.00 Build 0)  -->
<svg version="1.1" id="Layer_1" xmlns="http://www.w3.org/2000/svg" xmlns:xlink="http://www.w3.org/1999/xlink" x="0px" y="0px"
	 width="451.20001px" height="541.70001px" viewBox="0 0 451.20001 541.70001" enable-background="new 0 0 451.20001 541.70001"
	 xml:space="preserve">
<g id="Layer_2_1_" display="none">
</g>
<g id="Layer_3">
	<polygon opacity="0.4" fill="#000000" enable-background="new    " points="331.29999,487.29999 278.10001,493.60001 254.7,358.70001 
		276.10001,359.79999 413.5,440.89999 	"/>
	<polygon fill="#231F20" points="299.89999,257.60001 299.70001,482.29999 278.10001,493.60001 85.5,377.79999 85.5,80.7 
		106.8,66.6 237.7,145 	"/>
	<polygon fill="#CDD9EE" points="95.7,84.2 213.8,155.39999 226,148.39999 107.2,77.3 	"/>
	<polygon fill="#CDD9EE" points="276.10001,252.3 276.10001,480.5 95.8,372.20001 95.8,89.1 212.8,159 	"/>
	<polygon fill="#6885A9" points="281.20001,269.29999 280.20001,480.60001 292.39999,474.5 291.29999,263.20001 	"/>
	<path fill="#000000" d="M254.8,431.20001c0,8.39999-5.3,12-11.89999,8.10001L124,368.39999C117.5,364.5,112.1,354.5,112.1,346.10001L112,230.5
		c0-8.39999,5.3-12,11.9-8.10001l118.9,70.89999c6.5,3.89999,11.89999,13.89999,11.89999,22.29999L254.8,431.20001z M123.9,234.5
		c-1.3-0.8-2.4,0-2.4,1.60001l0.2,115.60001c0,1.60001,1.1,3.70001,2.4,4.5L243,427.10001c1.3,0.79999,2.39999,0,2.39999-1.60001
		l-0.2-115.60001c0-1.60001-1.10001-3.70001-2.39999-4.5C242.7,305.39999,123.9,234.5,123.9,234.5z M145.3,296
		c-7.89999-4.70001-14.3-16.70001-14.3-26.79999s6.39999-14.39999,14.2-9.79999c7.89999,4.70001,14.3,16.70001,14.3,26.79999
		C159.60001,296.29999,153.2,300.70001,145.3,296z M235.7,410.70001l-104.59999-62.39999v-18.29999l23.7-16.20001L166.7,336.10001
		l38-26l31,58V410.70001z"/>
	<polygon fill="#FFFFFF" points="95.7,84.2 133.3,106.8 156.5,106.9 118.6,84.3 	"/>
	<polygon fill="#FFFFFF" points="143.60001,113 159.60001,122.4 182.7,122.5 166.60001,113 	"/>
	<polygon fill="#8AA4C1" points="219.89999,159.7 279.70001,265.39999 290.60001,259 231.3,153.10001 	"/>
</g>
<g id="Layer_6">
	<path fill="#231F20" d="M219.89999,159.7L211.2,157.3v75.59999c0,2.89999,1.60001,5.60001,4.10001,7l60.8,34.89999l3.60001-9.39999
		L219.89999,159.7z"/>
	<path fill="#CDD9EE" d="M273.5,265.39999L222.8,236c-2.2-1.3-3.60001-3.7-3.60001-6.3l-0.3-59.90001L273.5,265.39999z"/>
	<g id="Layer_4">
	</g>
</g>
<g id="Layer_1_1_" display="none">
	<g display="inline">
		<path fill="#6885A9" d="M846.90002,308.29999C847,309.19998,847,310.09998,847,311L846.90002,308.29999L846.90002,308.29999z"/>
		<path fill="#231F20" d="M849,311h-3.79999c0-0.79999,0-1.60001-0.09998-2.5l-0.29999-2.10001h4.09998L849,311L849,311z"/>
	</g>
	<g display="inline">
		<path fill="#6885A9" d="M846.90002,212.7C847,213.59999,847,214.5,847,215.39999L846.90002,212.7L846.90002,212.7z"/>
		<path fill="#231F20" d="M849,215.39999h-3.79999c0-0.8,0-1.60001-0.09998-2.5l-0.29999-2.10001h4.09998L849,215.39999
			L849,215.39999z"/>
	</g>
	<path display="inline" fill="#B2CBED" stroke="#231F20" stroke-width="4" stroke-linejoin="round" stroke-miterlimit="10" d="
		M846.90002,308.29999C847,309.19998,847,310.09998,847,311L846.90002,308.29999L846.90002,308.29999z"/>
	<path display="inline" fill="#B2CBED" stroke="#231F20" stroke-width="4" stroke-linejoin="round" stroke-miterlimit="10" d="
		M846.90002,212.7C847,213.59999,847,214.5,847,215.39999L846.90002,212.7L846.90002,212.7z"/>
	<g display="inline">
		<polygon opacity="0.4" fill="#000000" enable-background="new    " points="274,525.29999 239.3,518.5 238.7,218.60001 516.29999,382.39999 		"/>
		<polygon fill="#CCD8EE" points="55.6,498.20001 54.9,498.20001 54.9,498.70001 		"/>
		<polygon fill="#231F20" points="54.4,499.60001 54.4,497.70001 57.5,497.70001 		"/>
		<polygon fill="#CCD8EE" points="55.6,410.29999 54.9,410.29999 54.9,410.70001 		"/>
		<polygon fill="#231F20" points="54.4,411.60001 54.4,409.79999 57.5,409.79999 		"/>
		<polygon fill="#CDD9EE" points="239.3,431.20001 56.9,321.60001 238.7,212.10001 421.70001,321.60001 		"/>
		<polygon fill="#CCD8EE" points="55.6,322.39999 54.9,322.39999 54.9,322.79999 		"/>
		<polygon fill="#B5C5DC" points="54.9,397.39999 239.3,508.20001 239.3,508.20001 239.3,433.70001 54.9,322.79999 		"/>
		<polygon fill="#6885A9" points="267,491.60001 239.3,508.20001 239.3,508.20001 239.3,433.70001 267,417 		"/>
		<path fill="#231F20" d="M46.7,318.10001v83v0.70001L239.3,517.60004l37.99998-22.79999V411L84.1,295.39999L46.7,318.10001z
			 M237.3,504.5L57,396.20001V326.5l180.3,108.29999V504.5z M56.9,321.60001L82.4,306l183,109.5l-26.10001,15.70001L56.9,321.60001z
			 M267.39999,489.29999l-26.10001,15.29999v-69.70001l26.10001-15.29999V489.29999z"/>
	</g>
</g>
<g id="Layer_5">
</g>
</svg>
