<?xml version="1.0" encoding="UTF-8"?><svg id="Layer_1" xmlns="http://www.w3.org/2000/svg" xmlns:xlink="http://www.w3.org/1999/xlink" viewBox="0 0 248.44 254.73"><defs><clipPath id="clippath"><path id="Fuselage-2" d="M114.24,74.77c-7.54-2.93-40.09-13.55-51.95-16.94s-9.64,1.53-4.52,7.34c0,0,10.52,14.71,18.25,23.47,7.73,8.76,18.32,20.72,24.67,26.22s97.87,57.92,97.87,57.92c0,0,37.84,12.42,45.74,6.78,7.91-5.65-27.76-43.55-27.76-43.55l-102.29-61.25Z" fill="none"/></clipPath><clipPath id="clippath-1"><ellipse id="Intake-2" cx="205.32" cy="113.74" rx="12.26" ry="8.17" transform="translate(31.75 271.74) rotate(-71.3)" fill="none"/></clipPath><clipPath id="clippath-2"><ellipse id="Intake-6" cx="140.4" cy="163.21" rx="12.26" ry="8.17" transform="translate(-59.21 243.85) rotate(-71.3)" fill="none"/></clipPath><clipPath id="clippath-3"><path id="RightWing-3" d="M123.14,121.93L25.5,155.52s14.95,4.75,18.3,4.41,127.28-10.61,127.28-10.61l-47.93-27.39Z" fill="none"/></clipPath></defs><path id="Shadow" d="M64.66,119.61l13.07-12.26s4.59,1.57,3.97,4.59l-6.23,25.57,1,1.66c11.65,3.77,23.31,7.7,27.45,9.3l42.52,25.46,56.3-57.56s4.57,4.3,4.57,8.32-23.13,64.3-25.47,70.43l24.39,14.6s35.67,37.9,27.76,43.55c-7.91,5.65-45.74-6.78-45.74-6.78,0,0-18.25-10.46-39.02-22.52-30.84,2.56-113.02,9.37-115.74,9.65-3.35,.35-18.3-4.41-18.3-4.41l90.23-31.04c-7.95-4.81-13.63-8.38-15.05-9.61-6.35-5.51-16.94-17.46-24.67-26.22-3.63-4.11-7.87-9.53-11.35-14.13-17.26,2.14-44.62,5.54-45.7,5.68-1.58,.2-8.65-2.5-8.65-2.5l43.6-18.03,21.07-13.74Z" fill="#010101" isolation="isolate" opacity=".4"/><g id="OutlineLower"><path d="M120.96,144.14c5.16,0,10.88,1.94,12.94,2.5,3.94,1.08,11,5.15,11,5.15-.07-.02-.13-.04-.2-.05-.12-.05-.25-.1-.38-.14,.1,.03,.19,.08,.28,.12,.03,0,.06,.02,.1,.02,.91,.38,1.69,1,2.33,1.79,1.27,1.58,1.99,3.86,2.05,6.45,.04,1.85-.26,3.85-.94,5.85-1.87,5.53-6.02,9.29-9.87,9.29-.61,0-1.22-.1-1.81-.29h0c-3.59-1.25-22.93-8.51-24.9-20.23-2.24-2.21-3.2-4.84-2.19-6.77,.78-1.5,2.59-2.27,4.81-2.27,.2,0,.41,0,.62,.02,1.7-1.05,3.87-1.43,6.16-1.43m0-3h0c-2.7,0-5.01,.47-6.89,1.41-3.41,.03-6.09,1.44-7.36,3.88-1.5,2.87-.7,6.49,2.08,9.6,1.28,5.48,5.66,10.57,13.02,15.15,5.79,3.6,11.83,5.84,13.61,6.46,.02,0,.05,.02,.07,.03,.89,.3,1.82,.45,2.77,.45,5.22,0,10.45-4.66,12.71-11.32,.77-2.26,1.14-4.64,1.1-6.88-.07-3.25-1.03-6.19-2.71-8.27-.78-.97-1.69-1.74-2.72-2.3-.08-.06-.16-.11-.24-.16-.76-.44-7.52-4.3-11.71-5.44-.28-.08-.64-.18-1.05-.3-2.74-.81-7.83-2.3-12.68-2.3h0Z" fill="#1d1d1b"/><path d="M186.24,94.52c5.16,0,10.88,1.94,12.94,2.5,3.94,1.08,11,5.15,11,5.15-.07-.02-.13-.04-.2-.05-.12-.05-.25-.1-.38-.14,.1,.03,.19,.08,.28,.12,.03,0,.06,.02,.1,.02,.91,.38,1.69,1,2.33,1.79,1.27,1.58,1.99,3.86,2.05,6.45,.04,1.85-.26,3.85-.94,5.85-1.87,5.53-6.02,9.29-9.87,9.29-.61,0-1.22-.1-1.81-.29h0c-3.59-1.25-22.93-8.51-24.9-20.23-2.24-2.21-3.2-4.84-2.19-6.77,.78-1.5,2.59-2.27,4.81-2.27,.2,0,.41,0,.62,.02,1.7-1.05,3.87-1.43,6.16-1.43m0-3h0c-2.7,0-5.01,.47-6.89,1.41-3.41,.03-6.09,1.44-7.36,3.88-1.5,2.87-.7,6.49,2.08,9.6,1.28,5.48,5.66,10.57,13.02,15.15,5.79,3.6,11.83,5.84,13.61,6.46,.02,0,.05,.02,.07,.03,.89,.3,1.82,.45,2.77,.45,5.22,0,10.45-4.66,12.71-11.32,.77-2.26,1.14-4.64,1.1-6.88-.07-3.25-1.03-6.19-2.71-8.27-.78-.97-1.69-1.74-2.72-2.3-.08-.06-.16-.11-.24-.16-.76-.44-7.52-4.3-11.71-5.44-.28-.08-.64-.18-1.05-.3-2.74-.81-7.83-2.3-12.68-2.3h0Z" fill="#1d1d1b"/></g><g id="Plane"><g id="Fuselage"><g clip-path="url(#clippath)"><path id="Midtone" d="M114.24,74.77c-7.54-2.93-40.09-13.55-51.95-16.94s-9.64,1.53-4.52,7.34c0,0,10.52,14.71,18.25,23.47,7.73,8.76,18.32,20.72,24.67,26.22s97.87,57.92,97.87,57.92c0,0,37.84,12.42,45.74,6.78,7.91-5.65-27.76-43.55-27.76-43.55l-102.29-61.25Z" fill="#efefef"/><path id="Shadow-2" d="M198.71,172.84c.05,.02,.13,.04,.22,.07l.1,.03c.11,.04,.25,.08,.41,.13l.13,.04c.16,.05,.35,.11,.55,.17l.26,.08c.16,.05,.32,.1,.5,.15,.11,.03,.22,.07,.34,.1,.21,.06,.43,.13,.66,.2,.15,.04,.3,.09,.45,.14,.25,.08,.52,.16,.79,.24,.15,.05,.32,.09,.48,.14,.22,.07,.45,.13,.68,.2,.18,.05,.35,.1,.54,.16,.26,.08,.54,.16,.81,.24,.26,.08,.53,.15,.8,.23,.3,.09,.6,.17,.91,.26,.22,.06,.46,.13,.69,.19,.25,.07,.5,.14,.75,.21,.25,.07,.49,.14,.74,.2,.28,.08,.56,.15,.85,.23,.36,.1,.73,.2,1.1,.29,.33,.09,.66,.18,1,.26,.27,.07,.54,.14,.81,.21,.28,.07,.55,.14,.83,.21,.28,.07,.55,.14,.83,.21,.31,.08,.62,.15,.94,.23,.39,.09,.78,.19,1.17,.28,.37,.09,.74,.18,1.12,.26,.28,.06,.56,.13,.83,.19,.3,.07,.61,.14,.92,.2,.29,.06,.57,.13,.86,.19,.33,.07,.66,.14,.99,.21,.37,.08,.74,.15,1.11,.23,.41,.08,.82,.16,1.23,.24,.27,.05,.54,.1,.81,.15,.31,.06,.63,.12,.94,.17,.27,.05,.55,.1,.82,.14,.34,.06,.69,.11,1.03,.17,.3,.05,.6,.1,.9,.14,.45,.07,.89,.13,1.33,.19,.24,.03,.48,.06,.72,.09,.32,.04,.63,.08,.95,.12,.24,.03,.48,.05,.72,.08,.34,.04,.68,.07,1.02,.1,.19,.02,.38,.04,.56,.05L79.6,92.7c7.18,8.09,15.67,17.47,21.09,22.17,4.03,3.49,42.3,25.85,69.77,41.74,16.77,9.67,28.1,16.19,28.1,16.19l.06,.02,.09,.03Z" fill="#c7c6c6"/><path id="Highlight" d="M114.24,74.77c-6.23-2.42-29.55-10.1-44.15-14.6l160.1,91.51c-6.95-8.54-13.66-15.67-13.66-15.67l-102.29-61.25Z" fill="#fafafa"/><g id="Windows"><path d="M127.88,107.72l-.07,7.03c0,.81-.9,1.3-1.59,.88l-4.87-2.98c-.31-.19-.5-.53-.5-.9l.04-7.52c0-.8,.87-1.3,1.56-.9l4.36,2.52c.67,.39,1.07,1.1,1.07,1.87Z" fill="#959697" stroke="#1d1d1b" stroke-linecap="round" stroke-linejoin="round"/><path d="M139.15,114.48l-.07,7.03c0,.81-.9,1.3-1.59,.88l-4.87-2.98c-.31-.19-.5-.53-.5-.9l.04-7.52c0-.8,.87-1.3,1.56-.9l4.36,2.52c.67,.39,1.07,1.1,1.07,1.87Z" fill="#959697" stroke="#1d1d1b" stroke-linecap="round" stroke-linejoin="round"/><path d="M150.69,121.15l-.07,7.03c0,.81-.9,1.3-1.59,.88l-4.87-2.98c-.31-.19-.5-.53-.5-.9l.04-7.52c0-.8,.87-1.3,1.56-.9l4.36,2.52c.67,.39,1.07,1.1,1.07,1.87Z" fill="#959697" stroke="#1d1d1b" stroke-linecap="round" stroke-linejoin="round"/><path d="M162.04,127.82l-.07,7.03c0,.81-.9,1.3-1.59,.88l-4.87-2.98c-.31-.19-.5-.53-.5-.9l.04-7.52c0-.8,.87-1.3,1.56-.9l4.36,2.52c.67,.39,1.07,1.1,1.07,1.87Z" fill="#959697" stroke="#1d1d1b" stroke-linecap="round" stroke-linejoin="round"/><path d="M173.4,134.12l-.07,7.03c0,.81-.9,1.3-1.59,.88l-4.87-2.98c-.31-.19-.5-.53-.5-.9l.04-7.52c0-.8,.87-1.3,1.56-.9l4.36,2.52c.67,.39,1.07,1.1,1.07,1.87Z" fill="#959697" stroke="#1d1d1b" stroke-linecap="round" stroke-linejoin="round"/><path d="M116.68,101.42l-.07,7.03c0,.81-.9,1.3-1.59,.88l-4.87-2.98c-.31-.19-.5-.53-.5-.9l.04-7.52c0-.8,.87-1.3,1.56-.9l4.36,2.52c.67,.39,1.07,1.1,1.07,1.87Z" fill="#959697" stroke="#1d1d1b" stroke-linecap="round" stroke-linejoin="round"/><path d="M184.94,140.79l-.07,7.03c0,.81-.9,1.3-1.59,.88l-4.87-2.98c-.31-.19-.5-.53-.5-.9l.04-7.52c0-.8,.87-1.3,1.56-.9l4.36,2.52c.67,.39,1.07,1.1,1.07,1.87Z" fill="#959697" stroke="#1d1d1b" stroke-linecap="round" stroke-linejoin="round"/></g><path id="TailShadow" d="M73.73,85.99c4.73-3.05,11.59-5.7,21.53-6.51-12.39-7.12-39.44-22.63-39.44-22.63l-.45-.06c-3.46,.5-1.28,4.22,2.4,8.39,0,0,8.6,12.03,15.96,20.81Z" fill="#c7c6c6"/><path id="Windscreen" d="M201.88,144.28s5.81,7.26,8.28,14.37c4.49,2,20.02,6.09,26.38,3.84,1.98-2.82,1.41-6.64,1.13-8.19s-8.72-10.91-8.72-10.91c0,0-.65,4.27-1.92,4.98s-15.11-.84-25.14-4.08Z" fill="#222323"/></g></g><g id="Wings"><g id="LeftWing"><g id="Engine"><g id="Engine-2"><g id="Body"><ellipse cx="182.48" cy="102.61" rx="5.6" ry="9.23" transform="translate(7.09 216.93) rotate(-62.44)" fill="#969696"/><path d="M197.58,111.11c2.17-6.41,7.4-10.44,11.67-8.99,.1,.03,.19,.08,.28,.12,.1,.03,.2,.04,.3,.08,0,0-7.07-4.07-11-5.15-3.94-1.08-21.4-7.24-22.47,5-1.17,13.45,21.14,21.82,25.03,23.17-4.27-1.45-5.97-7.82-3.8-14.23Z" fill="#e2e2e1"/></g><g id="Intake"><g clip-path="url(#clippath-1)"><ellipse id="Intake-3" cx="205.32" cy="113.74" rx="12.26" ry="8.17" transform="translate(31.75 271.74) rotate(-71.3)" fill="#7c7c7c"/><ellipse id="Intake-4" cx="198.34" cy="110.8" rx="12.26" ry="8.17" transform="translate(29.79 263.14) rotate(-71.3)" fill="#e2e2e1"/><path d="M209.25,102.12c-4.28-1.45-9.5,2.58-11.67,8.99-2.17,6.41-.47,12.79,3.81,14.23s9.5-2.58,11.67-8.99c2.17-6.41,.47-12.79-3.81-14.23Zm2.76,13.88c-1.88,5.54-6.48,9.63-10.18,8.38-3.69-1.25-5.08-7.36-3.2-12.9,1.88-5.54,6.74-9.47,10.43-8.22,3.69,1.25,4.83,7.21,2.95,12.75Z" fill="#efefef"/><ellipse cx="201.41" cy="111.8" rx="2.61" ry="1.69" transform="translate(22.68 257.13) rotate(-68.15)" fill="#7c7c7c"/></g></g></g></g><path id="LeftWing-2" d="M191.96,121.93s25.67-66.91,25.67-70.94-4.57-8.32-4.57-8.32l-56.72,58,35.62,21.26Z" fill="#fafafa"/></g><g id="RightWing"><g id="Engine-3"><g id="Body-2"><ellipse cx="117.56" cy="152.08" rx="5.6" ry="9.23" transform="translate(-71.66 185.95) rotate(-62.44)" fill="#969696"/><path d="M132.65,160.58c2.17-6.41,7.4-10.44,11.67-8.99,.1,.03,.19,.08,.28,.12,.1,.03,.2,.04,.3,.08,0,0-7.07-4.07-11-5.15-3.94-1.08-21.4-7.24-22.47,5-1.17,13.45,21.14,21.82,25.03,23.17-4.27-1.45-5.97-7.82-3.8-14.23Z" fill="#e2e2e1"/></g><g id="Intake-5"><g clip-path="url(#clippath-2)"><ellipse id="Intake-7" cx="140.4" cy="163.21" rx="12.26" ry="8.17" transform="translate(-59.21 243.85) rotate(-71.3)" fill="#7c7c7c"/><ellipse id="Intake-8" cx="133.42" cy="160.27" rx="12.26" ry="8.17" transform="translate(-61.17 235.25) rotate(-71.3)" fill="#e2e2e1"/><path d="M144.33,151.59c-4.28-1.45-9.5,2.58-11.67,8.99-2.17,6.41-.47,12.79,3.81,14.23s9.5-2.58,11.67-8.99c2.17-6.41,.47-12.79-3.81-14.23Zm2.76,13.88c-1.88,5.54-6.48,9.63-10.18,8.38-3.69-1.25-5.08-7.36-3.2-12.9,1.88-5.54,6.74-9.47,10.43-8.22,3.69,1.25,4.83,7.21,2.95,12.75Z" fill="#efefef"/><ellipse cx="136.49" cy="161.27" rx="2.61" ry="1.69" transform="translate(-63.99 227.93) rotate(-68.15)" fill="#7c7c7c"/></g></g></g><g id="RightWing-2"><g clip-path="url(#clippath-3)"><path id="RightWing-4" d="M123.14,121.93L25.5,155.52s14.95,4.75,18.3,4.41,127.28-10.61,127.28-10.61l-47.93-27.39Z" fill="#efefef"/><path id="Shadow-3" d="M101.81,129.27l39.06,22.55c17.44-1.45,30.2-2.5,30.2-2.5l-47.93-27.39-21.34,7.34Z" fill="#c7c6c6"/></g></g></g></g><g id="Tail"><path id="TailLeft" d="M85.74,64.03l6.28-25.78c.63-3.03-3.97-4.59-3.97-4.59l-13.13,12.33,10.82,18.05Z" fill="#fafafa"/><path id="TailRight" d="M56.46,58.61L10.32,77.69s7.06,2.7,8.65,2.5l59.57-7.4-22.08-14.18Z" fill="#c7c6c6"/><polygon id="TailCenter" points="95.27 79.51 52.34 8.43 43.16 3 55.82 56.84 95.27 79.51" fill="#d60756"/></g></g><g id="OutlineUpper"><g id="Main"><path d="M43.16,3l9.18,5.43,22.64,37.49,13.07-12.26s4.59,1.57,3.97,4.59l-6.23,25.57,1,1.66c11.65,3.77,23.31,7.7,27.45,9.3l42.52,25.46,56.3-57.56s4.57,4.3,4.57,8.32-23.13,64.3-25.47,70.43l24.39,14.6s35.67,37.9,27.76,43.55c-1.46,1.05-3.95,1.47-7.04,1.47-13.58,0-38.7-8.25-38.7-8.25,0,0-18.25-10.46-39.02-22.52-30.84,2.56-113.02,9.37-115.74,9.65-.12,.01-.25,.02-.39,.02-3.99,0-17.9-4.42-17.9-4.42l90.23-31.04c-7.95-4.81-13.63-8.38-15.05-9.61-6.35-5.51-16.94-17.46-24.67-26.22-3.63-4.11-7.87-9.53-11.35-14.13-17.26,2.14-44.62,5.54-45.7,5.68-.06,0-.12,.01-.19,.01-1.88,0-8.46-2.51-8.46-2.51l43.6-18.03c-.65-1.66-.24-2.78,1.88-2.92L43.16,3m0-3c-.63,0-1.25,.2-1.78,.58-.97,.71-1.42,1.93-1.14,3.1l12.04,51.21c-.43,.34-.74,.72-.96,1.06-.28,.44-.55,1.04-.64,1.79L9.17,74.92c-1.14,.47-1.87,1.58-1.85,2.81,.02,1.23,.78,2.32,1.93,2.76,2.13,.81,7.33,2.71,9.53,2.71,.2,0,.38-.01,.56-.03l42.78-5.31,1.21-.15c4.08,5.35,7.59,9.69,10.44,12.92,7.28,8.26,18.29,20.73,24.96,26.51,.77,.66,2.68,2.07,10,6.58l-84.2,28.96c-1.22,.42-2.04,1.58-2.02,2.87,.02,1.29,.86,2.43,2.09,2.82,2.4,.76,14.57,4.56,18.81,4.56,.25,0,.48-.01,.7-.03,2.7-.28,87.25-7.29,114.74-9.57,20.21,11.73,38.04,21.95,38.22,22.05,.18,.1,.36,.18,.56,.25,1.04,.34,25.73,8.4,39.64,8.4,4,0,6.87-.66,8.78-2.03,.95-.68,2.14-1.97,2.36-4.26,.31-3.13-.89-9.3-14.73-26.54-7.33-9.13-14.88-17.17-14.95-17.25-.19-.2-.41-.38-.64-.52l-22.22-13.31c2.25-5.89,7.59-19.92,12.73-33.75,12.04-32.44,12.04-34.36,12.04-35.39,0-5.17-4.95-9.98-5.51-10.51-.58-.54-1.32-.81-2.06-.81-.78,0-1.56,.3-2.15,.9l-54.64,55.87-40.49-24.24c-.15-.09-.3-.16-.46-.22-3.77-1.47-14-4.94-26.26-8.92l5.87-24.1s.02-.07,.02-.1c.8-3.88-2.4-6.83-5.93-8.04-.32-.11-.64-.16-.97-.16-.75,0-1.49,.28-2.05,.81l-10.36,9.73L54.91,6.88c-.26-.42-.61-.78-1.04-1.03L44.69,.42c-.47-.28-1-.42-1.53-.42h0Z" fill="#1d1d1b"/></g><g id="RightWing-5"><path d="M123.14,121.93l47.93,27.39s-123.93,10.26-127.28,10.61c-.12,.01-.25,.02-.39,.02-3.99,0-17.9-4.42-17.9-4.42l97.64-33.59m0-2c-.22,0-.44,.04-.65,.11L24.85,153.63c-.82,.28-1.36,1.05-1.35,1.91,.01,.86,.57,1.62,1.39,1.88,1.45,.46,14.33,4.52,18.51,4.52,.22,0,.42-.01,.6-.03,3.29-.34,126-10.5,127.24-10.6,.87-.07,1.6-.7,1.79-1.56,.19-.86-.2-1.73-.96-2.17l-47.93-27.39c-.31-.17-.65-.26-.99-.26h0Z" fill="#1d1d1b"/></g><g id="TailCenter-2"><path d="M43.16,3l9.18,5.43,42.92,71.08-39.44-22.66L43.16,3m0-2c-.42,0-.83,.13-1.18,.39-.65,.47-.95,1.29-.76,2.07l12.66,53.84c.13,.54,.47,1,.95,1.28l39.44,22.66c.31,.18,.65,.27,1,.27,.52,0,1.04-.21,1.43-.6,.64-.65,.75-1.65,.28-2.43L54.06,7.39c-.17-.28-.41-.52-.69-.69L44.18,1.28c-.31-.19-.67-.28-1.02-.28h0Z" fill="#1d1d1b"/></g><g id="TailRight-2"><path d="M56.46,58.61l22.08,14.18s-57.99,7.2-59.57,7.4c-.06,0-.12,.01-.19,.01-1.88,0-8.46-2.51-8.46-2.51l46.14-19.08m0-2c-.26,0-.52,.05-.76,.15L9.56,75.84c-.76,.31-1.25,1.06-1.24,1.88,.01,.82,.52,1.55,1.29,1.84,1.62,.62,7.08,2.64,9.17,2.64,.16,0,.3,0,.43-.03l59.57-7.4c.84-.1,1.52-.72,1.7-1.54,.19-.82-.16-1.67-.87-2.13l-22.08-14.18c-.33-.21-.7-.32-1.08-.32h0Z" fill="#1d1d1b"/></g><g id="LeftWing-3"><path d="M156.53,99.04l56.49-57.77,.71,.67c.2,.19,4.88,4.64,4.88,9.05,0,4.09-22.3,62.33-24.84,68.96l-.43,1.11-36.82-22.03Z" fill="#fafafa"/><path d="M213.06,42.67s4.57,4.3,4.57,8.32-24.78,68.6-24.78,68.6l-34.71-20.77,54.92-56.16m-.06-2.8l-1.37,1.4-54.92,56.16-1.77,1.81,2.18,1.3,34.71,20.77,2.04,1.22,.85-2.22c5.84-15.23,24.91-65.24,24.91-69.32,0-4.75-4.66-9.28-5.2-9.78l-1.43-1.34h0Z" fill="#1d1d1b"/></g></g></svg>