<?xml version="1.0" encoding="UTF-8"?><svg id="Layer_1" xmlns="http://www.w3.org/2000/svg" xmlns:xlink="http://www.w3.org/1999/xlink" viewBox="0 0 243.55 218.14"><defs><clipPath id="clippath"><path d="M38.75,134.54c.02-5.36,1.91-9.13,4.96-10.9" fill="none"/></clipPath></defs><g id="Body"><g id="RearWheel"><path id="Shadow" d="M2.57,121.67l74.24-41.81c1.59-.92,3.55-.93,5.14-.02l154.15,87.89c3.45,1.97,3.48,6.92,.05,8.93l-67.96,38.83c-5.98,3.5-13.37,3.54-19.38,.11L2.6,130.6c-3.45-1.97-3.47-6.94-.04-8.94Z" fill="#010101" isolation="isolate" opacity=".4"/><path d="M176.15,196.5c.03-9.07-6.35-20.12-14.25-24.68-3.8-2.19-7.25-2.47-9.82-1.17h0l-.2,.1s-.1,.05-.15,.08l-13.56,7.35v.02c-2.98,1.29-4.89,4.6-4.9,9.52-.03,9.07,6.35,20.12,14.25,24.68,3.98,2.3,7.58,2.5,10.18,.99l13.09-7.17c.73-.25,1.4-.62,2.01-1.1h.02c2.07-1.67,3.33-4.61,3.34-8.61Z" fill="#2b2b2b"/><ellipse cx="147.6" cy="196.25" rx="6.48" ry="11.19" transform="translate(-78.62 100.74) rotate(-30.16)" fill="#efefef"/></g><g id="RearWheel-2"><path d="M233.98,168.48c.03-9.07-6.35-20.12-14.25-24.68-3.8-2.19-7.25-2.47-9.82-1.17h0l-.2,.1s-.1,.05-.15,.08l-13.56,7.35v.02c-2.98,1.29-4.89,4.6-4.9,9.52-.03,9.07,6.35,20.12,14.25,24.68,3.98,2.3,7.58,2.5,10.18,.99l13.09-7.17c.73-.25,1.4-.62,2.01-1.1h.02c2.07-1.67,3.33-4.61,3.34-8.61Z" fill="#2b2b2b"/><ellipse cx="205.44" cy="168.23" rx="6.48" ry="11.19" transform="translate(-56.71 126) rotate(-30.16)" fill="#efefef"/></g><g id="UnderCarriage"><g isolation="isolate"><polygon points="232.98 144.78 163.69 185.51 35.16 111.3 104.45 70.58 232.98 144.78" fill="#999"/><g><path d="M163.65,202.81c-.17,0-.34-.04-.5-.13-.31-.18-.5-.51-.5-.87l.05-16.3c0-.35,.19-.68,.49-.86l69.29-40.72c.16-.09,.33-.14,.51-.14s.34,.04,.5,.13c.31,.18,.5,.51,.5,.87l-.05,16.3c0,.35-.19,.68-.49,.86l-69.29,40.72c-.16,.09-.33,.14-.51,.14Z" fill="#727372"/><path d="M232.98,144.78l-.05,16.3-69.29,40.72,.05-16.3,69.29-40.72m0-2c-.35,0-.7,.09-1.01,.28l-69.29,40.72c-.61,.36-.98,1.01-.99,1.72l-.05,16.3c0,.72,.38,1.38,1,1.74,.31,.18,.65,.27,1,.27s.7-.09,1.01-.28l69.29-40.72c.61-.36,.98-1.01,.99-1.72l.05-16.3c0-.72-.38-1.38-1-1.74-.31-.18-.65-.27-1-.27h0Zm0,4h0Z" fill="#1d1d1b"/></g><g><path d="M163.65,202.81c-.17,0-.35-.04-.5-.13L34.62,128.47c-.31-.18-.5-.51-.5-.87l.05-16.3c0-.36,.19-.69,.5-.86,.15-.09,.33-.13,.5-.13s.35,.04,.5,.13l128.53,74.21c.31,.18,.5,.51,.5,.87l-.05,16.3c0,.36-.19,.69-.5,.86-.15,.09-.33,.13-.5,.13Z" fill="#727372"/><path d="M35.16,111.3l128.53,74.21-.05,16.3L35.12,127.6l.05-16.3m0-2c-.34,0-.69,.09-1,.27-.62,.36-1,1.01-1,1.73l-.05,16.3c0,.72,.38,1.38,1,1.74l128.53,74.21c.31,.18,.65,.27,1,.27s.69-.09,1-.27c.62-.36,1-1.01,1-1.73l.05-16.3c0-.72-.38-1.38-1-1.74L36.16,109.57c-.31-.18-.65-.27-1-.27h0Z" fill="#1d1d1b"/></g></g></g><g isolation="isolate"><g isolation="isolate"><g clip-path="url(#clippath)"><g isolation="isolate"><path d="M40.77,126.52c.79-1.23,1.78-2.2,2.94-2.88" fill="#5f6060"/><path d="M103.86,88.69c-1.16,.68-2.16,1.64-2.94,2.88" fill="#5f6060"/><path d="M40.13,127.68c.19-.41,.41-.8,.64-1.16" fill="#606261"/><path d="M100.92,91.56c-.23,.36-.45,.75-.64,1.16" fill="#606261"/><path d="M39.72,128.65c.12-.33,.26-.66,.41-.97" fill="#626363"/><path d="M100.27,92.73c-.15,.31-.28,.63-.41,.97" fill="#626363"/><path d="M39.42,129.54c.09-.31,.19-.61,.3-.89" fill="#646564"/><path d="M99.87,93.69c-.11,.29-.21,.59-.3,.89" fill="#646564"/><path d="M39.2,130.41c.07-.3,.14-.59,.23-.87" fill="#656666"/><path d="M99.57,94.59c-.08,.28-.16,.57-.23,.87" fill="#656666"/><path d="M39.03,131.24c.05-.28,.1-.56,.17-.83" fill="#676868"/><path d="M99.34,95.46c-.06,.27-.12,.55-.17,.83" fill="#676868"/><path d="M38.91,132.05c.03-.28,.08-.55,.12-.81" fill="#686969"/><path d="M99.18,96.29c-.05,.27-.09,.54-.12,.81" fill="#686969"/><path d="M38.82,132.87c.02-.28,.05-.55,.08-.82" fill="#6a6b6b"/><path d="M99.06,97.1c-.03,.27-.06,.54-.08,.82" fill="#6a6b6b"/><path d="M38.77,133.67c.01-.27,.03-.54,.05-.8" fill="#6b6c6c"/><path d="M98.97,97.92c-.02,.26-.04,.53-.05,.8" fill="#6b6c6c"/><path d="M38.75,134.5c0-.28,0-.55,.02-.82" fill="#6d6e6e"/><path d="M98.92,98.72c-.01,.27-.02,.54-.02,.82" fill="#6d6e6e"/><path d="M38.75,134.54v-.05" fill="#6e6f6f"/><path d="M98.9,99.54v.05" fill="#6e6f6f"/></g></g></g><g id="FrontWheel"><g><path d="M59.57,160.05c-2.18,0-4.5-.7-6.91-2.09-8.16-4.71-14.78-16.17-14.75-25.55,.01-5.04,1.95-8.79,5.33-10.35,.03-.02,.06-.04,.1-.06l13.91-7.53c.06-.03,.13-.06,.19-.08,1.13-.54,2.38-.81,3.73-.81,2.17,0,4.49,.7,6.89,2.08,8.16,4.71,14.78,16.17,14.75,25.55-.01,4.11-1.31,7.42-3.66,9.33-.04,.04-.09,.08-.14,.11-.65,.5-1.37,.9-2.16,1.19l-13.02,7.13c-1.24,.72-2.67,1.09-4.25,1.09h0Z" fill="#2b2b2b"/><path d="M61.16,114.57c1.92,0,4.09,.62,6.39,1.95,7.9,4.56,14.27,15.61,14.25,24.68-.01,4-1.27,6.94-3.34,8.59h-.02c-.6,.49-1.28,.86-2.01,1.11l-13.09,7.17c-1.09,.64-2.37,.97-3.77,.97-1.93,0-4.11-.63-6.41-1.96-7.9-4.56-14.27-15.61-14.25-24.68,.01-4.92,1.92-8.23,4.91-9.52v-.02l13.56-7.35s.1-.05,.15-.08l.2-.11h0c1.02-.5,2.17-.77,3.43-.77m0-2c-1.48,0-2.85,.3-4.1,.89-.1,.03-.2,.08-.29,.13l-.2,.11c-.07,.04-.12,.07-.17,.09l-13.55,7.34s-.07,.04-.11,.06c-3.7,1.74-5.82,5.81-5.84,11.22-.03,9.86,6.67,21.47,15.25,26.42,2.56,1.48,5.05,2.23,7.41,2.23,1.74,0,3.34-.41,4.75-1.23l12.94-7.08c.87-.32,1.68-.77,2.4-1.34,.02-.01,.03-.03,.05-.04h0c2.62-2.1,4.08-5.7,4.09-10.15,.03-9.86-6.67-21.46-15.25-26.42-2.55-1.47-5.03-2.22-7.39-2.22h0Z" fill="#1d1d1b"/></g><ellipse cx="53.25" cy="140.95" rx="6.48" ry="11.19" transform="translate(-63.61 45.84) rotate(-30.16)" fill="#efefef"/></g><g><path d="M66.36,72.58l-.17,58.24-10.39-6c-9.39-5.42-17.02-1.07-17.06,9.72L5.34,115.25l.05-17.39L24.9,48.64l41.46,23.94Z" fill="#b6c5dd"/><polygon points="13.8 76.64 66.26 107.18 66.36 72.58 24.9 48.64 13.8 76.64"/></g><polygon points="66.36 72.58 126.51 37.62 126.34 95.87 66.2 130.82 66.36 72.58" fill="#6885aa"/><polygon points="24.9 48.64 85.05 13.69 126.51 37.62 66.36 72.58 24.9 48.64" fill="#cdd9ee"/></g><polygon id="Front" points="172.44 199.11 172.71 105.68 240.21 66.16 240.55 159.76 172.44 199.11" fill="#6885aa" stroke="#1d1d1b" stroke-linecap="round" stroke-linejoin="round" stroke-width="2"/><polygon id="Side" points="62.8 135.81 63.07 42.37 172.71 105.68 172.44 199.11 62.8 135.81" fill="#b6c5dd" stroke="#1d1d1b" stroke-linecap="round" stroke-linejoin="round" stroke-width="2"/><polygon id="Top" points="63.07 42.37 130.82 3 240.21 66.16 172.71 105.68 63.07 42.37" fill="#cdd9ee" stroke="#1d1d1b" stroke-linecap="round" stroke-linejoin="round" stroke-width="2"/><polygon points="172.44 173.78 62.8 112.04 62.8 93.31 172.44 155.05 172.44 173.78" fill="#d60756" stroke="#1d1d1b" stroke-miterlimit="10" stroke-width="2"/><line x1="210.24" y1="84.22" x2="210.24" y2="177.28" fill="#6885aa" stroke="#1d1d1b" stroke-linecap="round" stroke-linejoin="round" stroke-width="2"/></g><path d="M130.82,3l109.39,63.16,.34,93.61-7.07,4.09c.32,1.57,.51,3.13,.51,4.63-.01,4-1.27,6.94-3.34,8.59h-.02c-.6,.49-1.28,.86-2.01,1.11l-13.09,7.17c-1.09,.64-2.37,.97-3.77,.97-1.93,0-4.11-.63-6.41-1.96-1.14-.66-2.24-1.46-3.3-2.36l-25.92,14.98c-.11,3.75-1.33,6.53-3.32,8.11h-.02c-.6,.49-1.28,.86-2.01,1.11l-13.09,7.17c-1.09,.64-2.37,.97-3.77,.97-1.93,0-4.11-.63-6.41-1.96-7.9-4.56-14.27-15.61-14.25-24.68,0-1.18,.13-2.26,.34-3.25l-57.65-33.28-12.61,6.91c-1.09,.64-2.37,.97-3.77,.97-1.93,0-4.11-.63-6.41-1.96-7.9-4.56-14.27-15.61-14.25-24.68,0-.2,.02-.37,.03-.56-.12,.85-.18,1.74-.18,2.69L5.34,115.25l.05-17.39L24.9,48.64,85.05,13.69l13.74,7.93L130.82,3m0-3c-.52,0-1.04,.14-1.51,.41l-30.53,17.74-12.23-7.06c-.46-.27-.98-.4-1.5-.4-.52,0-1.04,.14-1.51,.41L23.39,46.05c-.58,.34-1.03,.86-1.28,1.49L2.6,96.75c-.14,.35-.21,.72-.21,1.1l-.05,17.39c0,1.07,.57,2.07,1.5,2.61l32.42,18.72c1.51,9.11,7.72,18.69,15.4,23.13,2.71,1.57,5.37,2.36,7.91,2.36,1.92,0,3.68-.46,5.24-1.36l11.1-6.08,54.43,31.42c-.05,.55-.07,1.1-.07,1.66-.03,10.19,6.89,22.17,15.75,27.29,2.71,1.57,5.37,2.36,7.91,2.36,1.92,0,3.68-.46,5.24-1.36l12.86-7.04c.94-.36,1.81-.85,2.59-1.46,.02-.02,.04-.03,.06-.05h0c2.42-1.93,3.89-4.9,4.32-8.65l22.79-13.17c.69,.5,1.38,.95,2.06,1.34,2.71,1.57,5.37,2.36,7.91,2.36,1.92,0,3.68-.46,5.24-1.36l12.86-7.04c.94-.36,1.81-.85,2.59-1.46,.02-.02,.04-.03,.06-.05h0c2.87-2.29,4.45-6.17,4.47-10.93,0-.98-.07-2.01-.2-3.08l5.27-3.04c.93-.54,1.5-1.53,1.5-2.61l-.34-93.61c0-1.07-.58-2.05-1.5-2.59L132.32,.4c-.46-.27-.98-.4-1.5-.4h0Z" fill="#1d1d1b"/></svg>