<?xml version="1.0" encoding="UTF-8"?><svg id="Layer_1" xmlns="http://www.w3.org/2000/svg" viewBox="0 0 240.81 260.55"><path id="Shadow" d="M13.75,167.78l71.39-40.21c1.53-.89,3.41-.9,4.95-.02l148.23,84.51c3.31,1.89,3.34,6.66,.05,8.59l-65.35,37.34c-5.75,3.36-12.85,3.41-18.64,.11L13.78,176.38c-3.32-1.89-3.34-6.67-.04-8.59Z" fill="#010101" isolation="isolate" opacity=".4"/><g id="Body"><g id="RearWheel"><path d="M54.3,164.15c.03-9.07-6.35-20.12-14.25-24.68-3.8-2.19-7.25-2.47-9.82-1.17h0l-.2,.1s-.1,.05-.15,.08l-13.56,7.35v.02c-2.98,1.29-4.89,4.6-4.9,9.52-.03,9.07,6.35,20.12,14.25,24.68,3.98,2.3,7.58,2.5,10.18,.99l13.09-7.17c.73-.25,1.4-.62,2.01-1.1h.02c2.07-1.67,3.33-4.61,3.34-8.61Z" fill="#2b2b2b"/><ellipse cx="25.76" cy="163.9" rx="6.48" ry="11.19" transform="translate(-78.87 35.13) rotate(-30.16)" fill="#efefef"/></g><g id="UnderCarriage"><g isolation="isolate"><polygon points="192.03 177.2 139.18 207.91 10.65 133.71 63.5 102.99 192.03 177.2" fill="#999"/><polygon points="192.03 177.2 191.98 193.5 139.13 224.21 139.18 207.91 192.03 177.2" fill="#8e8f8f"/><polygon points="139.18 207.91 139.13 224.21 10.6 150.01 10.65 133.71 139.18 207.91" fill="#727372"/></g></g><g id="FrontWheel"><path d="M156.26,223.64c.03-9.07-6.35-20.12-14.25-24.68-3.8-2.19-7.25-2.47-9.82-1.17h0l-.2,.1s-.1,.05-.15,.08l-13.56,7.35v.02c-2.98,1.29-4.89,4.6-4.9,9.52-.03,9.07,6.35,20.12,14.25,24.68,3.98,2.3,7.58,2.5,10.18,.99l13.09-7.17c.73-.25,1.4-.62,2.01-1.1h.02c2.07-1.67,3.33-4.61,3.34-8.61Z" fill="#2b2b2b"/><ellipse cx="127.67" cy="223.1" rx="6.48" ry="11.19" transform="translate(-94.81 94.35) rotate(-30.16)" fill="#efefef"/></g><g id="Side"><polygon points="3 135.81 3.26 42.37 112.91 105.68 112.64 199.11 3 135.81" fill="#b6c5dd"/></g><polygon id="Top" points="3.26 42.37 71.02 3 180.4 66.16 112.91 105.68 3.26 42.37" fill="#cdd9ee"/><polygon id="Front" points="112.64 199.11 112.91 105.68 180.4 66.16 180.75 159.76 112.64 199.11" fill="#6885aa"/><polygon points="112.64 173.78 3 112.04 3 93.31 112.64 155.05 112.64 173.78" fill="#d60756" stroke="#1d1d1b" stroke-miterlimit="10" stroke-width="2"/><g id="Outline"><polygon id="Side-2" points="3 135.81 3.26 42.37 112.91 105.68 112.64 199.11 3 135.81" fill="none" stroke="#1d1d1b" stroke-linecap="round" stroke-linejoin="round" stroke-width="2"/><polygon id="Front-2" points="112.64 199.11 112.91 105.68 180.4 66.16 180.75 159.76 112.64 199.11" fill="none" stroke="#1d1d1b" stroke-linecap="round" stroke-linejoin="round" stroke-width="2"/><line id="Undercarriage" x1="112.91" y1="209.74" x2="10.6" y2="150.01" fill="#727372" stroke="#1d1d1b" stroke-linecap="round" stroke-linejoin="round" stroke-width="2"/></g></g><g id="Cab"><g id="Front-3"><polygon id="Front-4" points="157.32 168.17 174.24 232.24 233.54 196.91 216.77 133.07 157.32 168.17" fill="#859ebb"/><polyline points="213.89 134.78 160.31 166.65 170.65 206.06 224.65 174.88 214.31 135.48"/><polygon points="180.53 200.35 201.92 188.01 217.1 146.1 214.31 135.48 213.89 134.78 201.66 142.05 180.53 200.35" fill="#6885aa"/><polygon points="170.35 204.93 170.65 206.06 175.71 203.14 196.8 144.94 190.8 148.51 170.35 204.93" fill="#6885aa"/><polygon points="213.89 134.78 160.31 166.65 170.65 206.06 224.65 174.88 213.89 134.78" fill="none" stroke="#1d1d1b" stroke-miterlimit="10" stroke-width="2"/></g><polygon id="Roof" points="119.75 146.66 179.29 111.22 216.77 133.07 157.32 168.17 119.75 146.66" fill="#cdd9ee"/><g id="Grill"><polygon id="Grill-2" points="173.33 248.41 233.54 213.29 233.54 196.91 174.24 232.24 173.33 248.41" fill="#a8a7a7"/><polygon points="174.24 232.24 233.54 196.91 233.54 213.29 173.33 248.41 174.24 232.24" fill="#6885aa"/><g id="Lights"><g><polygon points="177.6 233.23 189.1 226.37 189.1 236.57 177.71 243.22 177.6 233.23" fill="#fff"/><path d="M188.1,228.13v7.86l-9.41,5.49-.09-7.7,9.5-5.66m2-3.52l-13.51,8.05,.14,12.28,13.37-7.8v-12.53h0Z" fill="#1d1d1b"/></g><g><polygon points="219.2 208.27 231.12 201.17 231.12 211.9 219.27 218.81 219.2 208.27" fill="#fff"/><path d="M230.12,202.93v8.4l-9.87,5.76-.05-8.24,9.92-5.91m2-3.52l-13.93,8.3,.09,12.84,13.84-8.08v-13.07h0Z" fill="#1d1d1b"/></g></g></g><g id="Side-3"><path id="RightSide" d="M154.87,165.83l-15.66-9.04-17.14-9.89c-1.81-1.05-3.29-.21-3.29,1.88l-.08,26.6-.07,24.89,9.6,5.54c4.21,2.44,8,6.6,10.75,11.36,2.76,4.77,4.45,10.15,4.44,15l11.06,6.38,16.72,9.65c1.97,1.14,3.4-.18,2.9-2.66l.14-13.3-15.39-60.58c-.47-2.35-2.11-4.75-3.98-5.83" fill="#b6c5dd"/><path id="SideWindow" d="M167.59,206.06l-8.74-34.41c-.47-2.35-2.11-4.75-3.98-5.83l-15.66-9.04-17.14-9.89c-1.81-1.05-3.29-.21-3.29,1.88l-.08,26.6v2.4l48.88,28.28Z"/></g><g id="Outline-2"><polyline id="Roof-2" points="157.32 168.17 120.46 147.06 181.9 110.59" fill="none" stroke="#1d1d1b" stroke-linecap="round" stroke-linejoin="round" stroke-width="2"/><polyline id="RightSide-2" points="216.77 133.07 157.32 168.17 174.24 232.24 174.24 250.27" fill="none" stroke="#1d1d1b" stroke-linecap="round" stroke-linejoin="round" stroke-width="2"/><g id="RightSide-3"><path d="M120.81,148.49c.07,.03,.16,.07,.27,.13l17.14,9.89,15.66,9.04c1.37,.79,2.66,2.72,3.02,4.49v.05l.02,.05,15.33,60.33-.14,13.04v.21l.04,.21c.04,.22,.06,.4,.06,.53l-16.72-9.65-10.08-5.82c-.23-4.73-1.87-9.95-4.68-14.83-3.04-5.26-7.11-9.55-11.48-12.09l-8.59-4.96,.07-23.73,.08-26.6c0-.11,0-.21,.02-.28m-.2-2.05c-1.08,0-1.81,.85-1.82,2.33l-.08,26.6-.07,24.89,9.6,5.54c4.21,2.44,8,6.6,10.75,11.36,2.76,4.77,4.45,10.15,4.44,15l11.06,6.38,16.72,9.65c.49,.28,.94,.41,1.34,.41,1.22,0,1.94-1.21,1.56-3.07l.14-13.3-15.39-60.58c-.47-2.35-2.11-4.75-3.98-5.83l-15.66-9.04-17.14-9.89c-.53-.31-1.03-.45-1.47-.45h0Z" fill="#1d1d1b"/></g></g></g><g id="Outline-3"><path d="M71.02,3l109.39,63.16,.17,45.82,36.2,21.1,16.77,63.84v16.38l-60.17,35.1h-.02l-.02,.02h0c-.23,.13-.49,.2-.79,.2-.4,0-.85-.13-1.34-.41l-16.72-9.65-6.66-3.85-9.67,5.62-.35,.2c-1.09,.64-2.37,.97-3.77,.97-1.93,0-4.11-.63-6.41-1.96-7.9-4.56-14.27-15.61-14.25-24.68,0-.52,.03-1.01,.07-1.49,.02-.28,.07-.53,.1-.8,.03-.17,.05-.35,.08-.52,.06-.34,.14-.67,.22-.99,.02-.06,.03-.12,.05-.17,.1-.36,.21-.71,.34-1.04l-64.67-37.34c-.57,.71-1.22,1.3-1.96,1.73l-11.71,6.8h0c-1.09,.63-2.36,.96-3.76,.96-1.93,0-4.11-.63-6.41-1.96-7.9-4.56-14.27-15.61-14.25-24.68,0-1.68,.23-3.18,.65-4.47l-1.51-.87,.03-9.79-7.63-4.41,.26-93.44L71.02,3m66.78,237.52h0m0,0h0M71.02,0c-.52,0-1.04,.14-1.51,.41L1.76,39.78c-.92,.54-1.49,1.52-1.49,2.59L0,135.8c0,1.07,.57,2.07,1.5,2.61l6.13,3.54-.02,8.06c0,.91,.41,1.76,1.09,2.32-.15,.96-.23,1.97-.23,3.02-.03,10.19,6.89,22.17,15.75,27.29,2.71,1.57,5.37,2.36,7.91,2.36,1.86,0,3.57-.43,5.1-1.27,.06-.03,.12-.06,.18-.09l11.71-6.8c.31-.18,.61-.38,.9-.6l60.71,35.05c-.02,.08-.03,.17-.05,.25-.03,.14-.05,.31-.07,.47l-.02,.14-.02,.17c-.04,.26-.07,.52-.1,.8-.05,.59-.08,1.16-.08,1.74-.03,10.19,6.89,22.17,15.75,27.29,2.71,1.57,5.37,2.36,7.91,2.36,1.85,0,3.56-.43,5.09-1.27,.12-.06,.23-.12,.34-.19l.2-.12,8.17-4.74,5.16,2.98,16.72,9.65c.93,.54,1.89,.81,2.84,.81,.75,0,1.48-.18,2.12-.51,.06-.03,.12-.06,.17-.09h.02l.02-.02h0l60.17-35.1c.92-.54,1.49-1.52,1.49-2.59v-16.38c0-.26-.03-.51-.1-.76l-16.77-63.84c-.2-.77-.7-1.43-1.39-1.83l-34.72-20.24-.16-44.1c0-1.07-.58-2.05-1.5-2.59L72.52,.4c-.46-.27-.98-.4-1.5-.4h0Z" fill="#1d1d1b"/></g></svg>